<svg xmlns="http://www.w3.org/2000/svg" xmlns:xlink="http://www.w3.org/1999/xlink" width="125" height="125" viewBox="0 0 125 125">
  <defs>
    <style>
      .cls-1 {
        clip-path: url(#clip-工作區域_1);
      }

      .cls-2 {
        fill: none;
        stroke: #000;
        stroke-miterlimit: 10;
      }

      .cls-3 {
        fill: rgba(255,255,255,0);
      }
    </style>
    <clipPath id="clip-工作區域_1">
      <rect width="125" height="125"/>
    </clipPath>
  </defs>
  <g id="工作區域_1" data-name="工作區域 1" class="cls-1">
    <rect class="cls-3" width="125" height="125"/>
    <g id="圖層_2" data-name="圖層 2" transform="translate(-396 -198)">
      <g id="Group_1" data-name="Group 1" transform="translate(399.122 203.713)">
        <path id="Path_1" data-name="Path 1" class="cls-2" d="M472.791,243c-2.767-8.552,1.216-10.575-4.059-17.854s-8.437-4.124-15.7-9.417-5.233-9.27-13.778-12.058-9.25,1.622-18.239,1.611-9.682-4.424-18.235-1.657-6.529,6.75-13.808,12.025-10.433,2.111-15.726,9.377-1.315,9.3-4.1,17.844-7.2,7.841-7.211,16.83,4.4,8.3,7.169,16.848-1.216,10.576,4.059,17.855,8.437,4.124,15.7,9.416,5.233,9.27,13.778,12.059,9.25-1.623,18.239-1.612,9.682,4.424,18.235,1.657,6.529-6.75,13.808-12.024,10.433-2.112,15.726-9.378,1.315-9.3,4.1-17.844,7.447-7.946,7.21-16.932C479.731,251.133,475.558,251.553,472.791,243Z" transform="translate(-361.93 -202.713)"/>
      </g>
      <g id="Group_2" data-name="Group 2" transform="translate(431.3 235.879)">
        <path id="Path_2" data-name="Path 2" d="M397.2,266.331a14.11,14.11,0,0,1,1.82-1.134q1.119-.6,2.576-1.2t3.164-1.2q1.707-.6,3.584-1.162,2.127-3.528,4.494-6.818t4.592-6.062q2.226-2.772,4.116-4.9t3.038-3.388a39.436,39.436,0,0,0-5.138,1.162A54.2,54.2,0,0,0,414,243.539a52.467,52.467,0,0,0-5.264,2.52,37.656,37.656,0,0,0-4.634,2.982,22.61,22.61,0,0,0-3.556,3.3,9.813,9.813,0,0,0-2,3.458,2.35,2.35,0,0,0-.126.938c.028.271.06.5.1.686a1.654,1.654,0,0,1,.042.434c-.01.1-.089.154-.238.154a5.509,5.509,0,0,1-.8-.1,3.576,3.576,0,0,1-1.134-.406,2.865,2.865,0,0,1-.966-.882,2.288,2.288,0,0,1-.322-1.554,8.411,8.411,0,0,1,1.778-4.3,20.769,20.769,0,0,1,4.13-4.046,40.464,40.464,0,0,1,5.81-3.626,57.711,57.711,0,0,1,6.832-3,63.522,63.522,0,0,1,7.2-2.156,48.121,48.121,0,0,1,6.9-1.134c.056,0,.242-.023.56-.07a9,9,0,0,1,1.05-.084,4.343,4.343,0,0,1,1.106.112,1.117,1.117,0,0,1,.756.518,1.341,1.341,0,0,1-.028,1.106,6.958,6.958,0,0,1-1.232,1.89H429.9a1.727,1.727,0,0,1-.2.252q-1.149,1.317-2.87,3.36t-3.752,4.592q-2.031,2.549-4.228,5.46t-4.242,5.964q3.612-.867,7.042-1.428a51.972,51.972,0,0,1,6.09-.672,109.192,109.192,0,0,1,7.35-10.444A112.233,112.233,0,0,1,445.3,236.2a1.132,1.132,0,0,1,.63-.266,5.111,5.111,0,0,1,.938-.056,5.429,5.429,0,0,1,1.008.126,3.048,3.048,0,0,1,.826.294.815.815,0,0,1,.406.448.577.577,0,0,1-.224.574,111.349,111.349,0,0,0-9.617,10.738,120.237,120.237,0,0,0-7.155,10.178,3.27,3.27,0,0,1,1.288.854,2.025,2.025,0,0,1,.518,1.008.938.938,0,0,1-.252.826,1.242,1.242,0,0,1-.994.308c-.373-.018-.756-.028-1.148-.028H430.35a84.862,84.862,0,0,0-4.34,8.624q-1.709,4.005-2.7,7.084a41.03,41.03,0,0,0-1.358,5.1,12.815,12.815,0,0,0-.308,2.66,1.081,1.081,0,0,1-.224.839.529.529,0,0,1-.658.057,2.356,2.356,0,0,1-.84-.853,6.263,6.263,0,0,1-.742-1.891,9.379,9.379,0,0,1-.084-2.926,28.5,28.5,0,0,1,.9-4.7,55.447,55.447,0,0,1,2.1-6.216,69.719,69.719,0,0,1,3.528-7.434,65.51,65.51,0,0,0-7.154,1.246q-3.57.826-6.874,1.834a75.4,75.4,0,0,0-3.878,7.35,24.085,24.085,0,0,0-2.03,6.51,3.916,3.916,0,0,0-.014.882,5.056,5.056,0,0,1,.014.826.891.891,0,0,1-.2.546q-.168.182-.672.1-.141-.028-.7-.168a2.742,2.742,0,0,1-1.12-.63,3.364,3.364,0,0,1-.9-1.4,4.575,4.575,0,0,1,0-2.478,30.754,30.754,0,0,1,1.372-4.662q.9-2.365,2.072-4.774-2.465.981-4.3,1.834a23,23,0,0,0-2.73,1.442,4.018,4.018,0,0,1-1.6.714,1.019,1.019,0,0,1-.9-.224,1.235,1.235,0,0,1-.294-.854,3.772,3.772,0,0,1,.168-1.176,5.239,5.239,0,0,1,.532-1.2A3.371,3.371,0,0,1,397.2,266.331Z" transform="translate(-395.084 -235.879)"/>
      </g>
    </g>
  </g>
</svg>
